<svg xmlns="http://www.w3.org/2000/svg" viewBox="0 0 305.87 261.61"><defs><style>.a,.b,.c,.d{fill:#fff;}.a{opacity:0.4;}.b,.e{opacity:0.5;}.c{opacity:0.33;}.d{opacity:0.25;}</style></defs><title>Artboard 1</title><path class="a" d="M7.13 161c0 55.59 65.46 100.65 146.21 100.65V60.31C72.58 60.31 7.13 105.38 7.13 161zm89.39-10a26.62 26.62 0 1 1 26.62-26.62A26.62 26.62 0 0 1 96.51 151z"/><path class="b" d="M153.33 60.31v201.3c80.75 0 146.21-45.06 146.21-100.65S234.08 60.31 153.33 60.31zM209.5 151a26.62 26.62 0 1 1 26.62-26.62A26.62 26.62 0 0 1 209.5 151zM75.49 223.3a157.25 157.25 0 0 0 15 6.48v-33.26h-15zM95.49 231.56q7.22 2.44 15 4.33v-39.37h-15zM115.49 237q7.31 1.56 15 2.57v-43.05h-15zM135.49 240.18q7.36.76 15 1v-44.66h-15z"/><path class="c" d="M230.49 223.3a157.25 157.25 0 0 1-15 6.48v-33.26h15zM210.49 231.56q-7.22 2.44-15 4.33v-39.37h15zM190.49 237q-7.31 1.56-15 2.57v-43.05h15zM170.49 240.18q-7.36.76-15 1v-44.66h15z"/><path class="b" d="M153.33 152.43c-22.5 0-43.37 2.24-61.78 4.21-27.09 2.9-48.48 5.2-56.69-2.18-2.61-2.35-3.88-5.71-3.88-10.28 0-29.93 54.58-66.08 122.35-66.08v-4c-32.38 0-64 8-88.93 22.53C41 110.24 27 128 27 144.17c0 5.69 1.75 10.15 5.21 13.26 9.54 8.57 30.62 6.31 59.79 3.18 18.31-2 39.06-4.19 61.35-4.19z"/><path class="c" d="M242.27 96.61c-25-14.53-56.55-22.53-88.93-22.53v4c67.77 0 122.35 36.15 122.35 66.08 0 4.57-1.27 7.93-3.88 10.28-8.21 7.38-29.61 5.09-56.69 2.18-18.41-2-39.27-4.21-61.78-4.21v4c22.29 0 43 2.22 61.35 4.19 14 1.5 26.14 2.8 36 2.8 10.72 0 18.8-1.53 23.76-6 3.46-3.11 5.21-7.57 5.21-13.26.02-16.14-13.96-33.9-37.39-47.53z"/><path class="d" d="M15.75 25.71l13.89 26.86c-12.42 10.14-14.83 30.82-8.88 41.58a19.47 19.47 0 0 0 8.1 7.79c13-13.33 30.5-24.4 51-32.18a18.84 18.84 0 0 0-2.23-7.08C71.68 51.92 52.87 43 37.69 48.12l-15.39-26a13 13 0 1 0-6.55 3.63zM290.11 25.71l-13.88 26.86c12.42 10.13 14.83 30.82 8.88 41.57a19.47 19.47 0 0 1-8.1 7.79c-13-13.33-30.5-24.4-51-32.18a18.84 18.84 0 0 1 2.23-7.08c6-10.75 24.76-19.69 39.94-14.56l15.39-26a13 13 0 1 1 6.55 3.63z"/><path class="e" d="M88.75 106.79a19 19 0 1 0 26 7 19 19 0 0 0-26-7zm15 12.86a6.18 6.18 0 1 1 2.26-8.45 6.18 6.18 0 0 1-2.21 8.45zM201.75 106.79a19 19 0 1 0 26 7 19 19 0 0 0-26-7zm15 12.86a6.18 6.18 0 1 1 2.26-8.45 6.18 6.18 0 0 1-2.21 8.45z"/></svg>